<svg viewBox="0 0 71 71" fill="none" xmlns="http://www.w3.org/2000/svg">
<path d="M71.0001 21.2477C71.0001 9.53155 61.4685 0 49.7524 0C44.0773 0 38.7422 2.20903 34.7285 6.22384L21.516 19.4364L19.8096 17.73L11.9367 25.603L10.7991 31.2908L0 42.0899L5.02128 47.1112L15.8187 36.3132L21.5082 35.1745L29.3812 27.3016L27.6748 25.5952L44.164 9.10608C53.8305 9.35103 61.649 17.169 61.8929 26.8361L56.5439 32.1851L45.4049 43.3252L43.6985 41.6189L35.8255 49.4919L34.688 55.1797L23.8889 65.9788L28.9102 71.0001L39.7076 60.2021L45.3971 59.0634L53.27 51.1904L51.5637 49.4841L64.7762 36.271C68.7899 32.2579 71.0001 26.9227 71.0001 21.2477ZM13.0809 31.4775L13.6824 28.4708L18.6404 33.4288L15.6337 34.0292L13.0809 31.4775ZM3.21718 42.0899L11.8467 33.4604L13.6508 35.2645L5.02128 43.894L3.21718 42.0899ZM20.9472 32.5184L14.5928 26.164L19.8096 20.9472L26.164 27.3016L20.9472 32.5184ZM37.2064 12.8465L26.0662 23.9866L23.1246 21.045L36.3371 7.83187C39.4199 4.748 43.3808 2.86669 47.6539 2.399L37.2064 12.8465ZM46.2658 7.00425L50.9355 2.33401C60.4526 2.92445 68.074 10.5475 68.6655 20.0646L63.9958 24.7343C62.8321 15.4971 55.503 8.16792 46.2658 7.00425ZM36.9698 55.3663L37.5713 52.3597L42.5293 57.3176L39.5226 57.9181L36.9698 55.3663ZM27.106 65.9788L35.7355 57.3493L37.5397 59.1534L28.9102 67.7829L27.106 65.9788ZM44.8361 56.4072L38.4817 50.0529L43.6985 44.8361L50.0529 51.1904L44.8361 56.4072ZM49.9551 47.8755L47.0134 44.9338L68.6022 23.3451C68.1345 27.6176 66.2521 31.5774 63.1688 34.6619L49.9551 47.8755Z" fill="#FFA901"/>
<path d="M44.8362 51.1904C44.8362 51.8186 44.3268 52.328 43.6986 52.328C43.0704 52.328 42.561 51.8186 42.561 51.1904C42.561 50.5622 43.0704 50.0529 43.6986 50.0529C44.3268 50.0529 44.8362 50.5622 44.8362 51.1904Z" fill="#426AF9"/>
<path d="M20.9473 27.3016C20.9473 27.9298 20.4379 28.4391 19.8097 28.4391C19.1815 28.4391 18.6721 27.9298 18.6721 27.3016C18.6721 26.6734 19.1815 26.164 19.8097 26.164C20.4379 26.164 20.9473 26.6734 20.9473 27.3016Z" fill="#426AF9"/>
</svg>
