<svg viewBox="0 0 66 66" fill="none" xmlns="http://www.w3.org/2000/svg">
<path d="M20.8765 16.1907C20.6367 15.9509 20.3041 15.813 19.9651 15.813C19.6261 15.813 19.2935 15.9509 19.0537 16.1907C18.8141 16.4304 18.676 16.763 18.676 17.102C18.676 17.441 18.814 17.7736 19.0537 18.0134C19.2935 18.2533 19.6261 18.3911 19.9651 18.3911C20.3041 18.3911 20.6367 18.2532 20.8765 18.0134C21.1161 17.7736 21.2542 17.441 21.2542 17.102C21.2542 16.763 21.1162 16.4304 20.8765 16.1907Z" fill="#426AF9"/>
<path d="M65.6229 5.39413L64.029 3.7984L65.6224 2.20499C66.1258 1.70161 66.1258 0.885375 65.6224 0.381868C65.1189 -0.121511 64.3029 -0.121511 63.7993 0.381868L62.2068 1.97425L60.6363 0.401848C60.3946 0.16002 60.067 0.023895 59.7251 0.0237661L37.9072 0.0116489C37.9059 0.0116489 37.9048 0.0116489 37.9036 0.0116489C36.1808 0.0116489 34.5611 0.682477 33.3428 1.90077L22.4553 12.7882C21.952 13.2916 21.952 14.1078 22.4553 14.6113C22.9588 15.1147 23.7748 15.1147 24.2785 14.6113L35.1659 3.72389C35.8973 2.99248 36.8694 2.5899 37.9036 2.5899C37.9044 2.5899 37.9051 2.5899 37.9058 2.5899L59.1896 2.60176L60.3841 3.7975L55.6011 8.58043C53.5729 7.36562 50.899 7.63052 49.1531 9.37617C48.1558 10.3736 47.6065 11.6997 47.6065 13.1102C47.6065 14.5207 48.1558 15.8467 49.1531 16.8442C50.1826 17.8737 51.5349 18.3884 52.8873 18.3884C54.2395 18.3884 55.5917 17.8737 56.6213 16.8442C58.3644 15.101 58.6311 12.4324 57.4226 10.4052L62.2062 5.62165L63.4217 6.83865L63.4099 28.0936C63.4092 29.1269 63.0065 30.0985 62.2758 30.8293L30.8197 62.2851C30.0884 63.0164 29.1161 63.4191 28.082 63.4191C27.0479 63.4191 26.0755 63.0164 25.3443 62.2851L3.71224 40.653C2.98083 39.9217 2.57812 38.9493 2.57812 37.9152C2.57812 36.8812 2.98083 35.9088 3.71224 35.1775L17.6076 21.2822C18.1109 20.7788 18.1109 19.9626 17.6076 19.4591C17.1041 18.9557 16.2881 18.9557 15.7844 19.4591L1.88912 33.3544C0.670957 34.5726 0 36.1924 0 37.9152C0 39.6381 0.670957 41.2579 1.88912 42.4761L23.5211 64.1082C24.7786 65.3656 26.4302 65.9944 28.082 65.9944C29.7338 65.9944 31.3853 65.3656 32.6428 64.1082L64.0988 32.6521C65.316 31.4349 65.9869 29.8163 65.9879 28.0948L66 6.30575C66.0003 5.96389 65.8645 5.63596 65.6229 5.39413ZM54.7982 15.021C54.2877 15.5314 53.609 15.8126 52.8873 15.8126C52.1653 15.8126 51.4867 15.5314 50.9762 15.021C49.9224 13.9673 49.9224 12.2527 50.9762 11.199C51.5032 10.6721 52.195 10.4087 52.8873 10.4087C53.1479 10.4087 53.4084 10.4462 53.6603 10.521L52.1725 12.0088C51.6691 12.5122 51.6691 13.3284 52.1725 13.8319C52.4242 14.0837 52.7541 14.2095 53.084 14.2095C53.4139 14.2095 53.7437 14.0837 53.9955 13.8319L55.4792 12.3482C55.7472 13.2659 55.5204 14.2987 54.7982 15.021Z" fill="#FFA901"/>
<path d="M55.0635 25.957L40.0409 10.9342C38.0508 8.94416 34.8126 8.94442 32.8228 10.9342L9.04974 34.7074C8.08565 35.6713 7.55469 36.953 7.55469 38.3164C7.55469 39.6797 8.08552 40.9615 9.04961 41.9255L24.0723 56.948C25.0364 57.912 26.318 58.443 27.6813 58.443C29.0446 58.443 30.3265 57.9122 31.2903 56.9481L55.0635 33.1749C56.0276 32.2108 56.5584 30.9293 56.5584 29.5659C56.5584 28.2026 56.0276 26.9209 55.0635 25.957ZM53.2404 31.3518L29.4673 55.1252C28.9904 55.6022 28.356 55.8649 27.6815 55.8649C27.0069 55.8649 26.3725 55.6022 25.8956 55.1251L10.8727 40.1025C10.3957 39.6254 10.1329 38.9912 10.1329 38.3165C10.1328 37.6418 10.3957 37.0074 10.8727 36.5305L34.6459 12.7573C35.1383 12.2649 35.785 12.0187 36.4319 12.0187C37.0786 12.0187 37.7255 12.265 38.2177 12.7573L53.2404 27.7799C53.7174 28.257 53.9801 28.8912 53.9801 29.5659C53.9801 30.2405 53.7174 30.8749 53.2404 31.3518Z" fill="#FFA901"/>
<path d="M42.0336 25.7918C42.5369 25.2884 42.5369 24.4722 42.0336 23.9687C41.53 23.4653 40.7141 23.4653 40.2104 23.9687L39.4682 24.7109C37.4863 23.4867 34.9432 23.6511 33.3356 25.2584C32.3983 26.1957 31.9188 27.4685 31.9853 28.8423C32.0496 30.169 32.6209 31.4355 33.5938 32.4083C33.5939 32.4084 33.5941 32.4084 33.5941 32.4086C34.6309 33.4459 34.7466 35.0175 33.852 35.9121C32.957 36.8069 31.3851 36.691 30.3479 35.654C29.3108 34.6167 29.195 33.0449 30.0897 32.15C30.5931 31.6466 30.5931 30.8304 30.0897 30.3269C29.5862 29.8235 28.7703 29.8235 28.2666 30.3269C26.6592 31.9343 26.4949 34.4774 27.7192 36.4595L26.8385 37.34C26.3351 37.8434 26.3351 38.6596 26.8385 39.1631C27.0909 39.4151 27.4207 39.541 27.7506 39.541C28.0806 39.541 28.4104 39.415 28.6621 39.1634L29.5433 38.2822C30.4093 38.817 31.382 39.088 32.3375 39.088C33.5684 39.0879 34.7702 38.6402 35.6753 37.7352C37.5748 35.8356 37.4593 32.629 35.4181 30.5865C35.4177 30.5861 35.4174 30.5857 35.4171 30.5853C34.8981 30.0663 34.5939 29.4031 34.5606 28.7175C34.5298 28.0791 34.7421 27.4981 35.1589 27.0815C36.0535 26.1868 37.6251 26.3025 38.6624 27.3393C38.6625 27.3395 38.6625 27.3396 38.6627 27.3397C38.6628 27.3398 38.6629 27.3398 38.6629 27.3398C39.6998 28.3772 39.8155 29.9488 38.9207 30.8435C38.4173 31.3469 38.4173 32.1631 38.9207 32.6666C39.1725 32.9184 39.5023 33.0442 39.8322 33.0442C40.1621 33.0442 40.492 32.9184 40.7437 32.6666C42.3512 31.0591 42.5155 28.516 41.2913 26.5341L42.0336 25.7918Z" fill="#426AF9"/>
<path d="M28.9867 47.1625L22.3659 40.5416C21.8626 40.0387 21.0466 40.0384 20.5428 40.5416C20.0394 41.045 20.0394 41.8613 20.5428 42.3648L27.1637 48.9857C27.4155 49.2373 27.7453 49.3632 28.0752 49.3632C28.4051 49.3632 28.7349 49.2373 28.9867 48.9857C29.4901 48.4823 29.4901 47.666 28.9867 47.1625Z" fill="#426AF9"/>
<path d="M18.8343 37.0103C18.5947 36.7706 18.2633 36.6326 17.9231 36.6326C17.5841 36.6326 17.2528 36.7705 17.0117 37.0103C16.772 37.25 16.634 37.5826 16.634 37.9229C16.634 38.2619 16.7718 38.5945 17.0117 38.8343C17.2515 39.0741 17.5841 39.212 17.9231 39.212C18.2634 39.212 18.5947 39.0741 18.8343 38.8343C19.0754 38.5932 19.2133 38.2619 19.2133 37.9229C19.2133 37.5826 19.0754 37.2513 18.8343 37.0103Z" fill="#426AF9"/>
</svg>
