<svg width="79" height="79" viewBox="0 0 79 79" fill="none" xmlns="http://www.w3.org/2000/svg">
<path d="M18.4334 52.0084C14.0766 52.0084 10.5334 55.5515 10.5334 59.9084C10.5334 64.2652 14.0766 67.8084 18.4334 67.8084C22.7903 67.8084 26.3334 64.2652 26.3334 59.9084C26.3334 55.5515 22.7902 52.0084 18.4334 52.0084ZM18.4334 65.175C15.5288 65.175 13.1668 62.8128 13.1668 59.9084C13.1668 57.0037 15.529 54.6417 18.4334 54.6417C21.3379 54.6417 23.7001 57.0039 23.7001 59.9084C23.7001 62.8128 21.3379 65.175 18.4334 65.175Z" fill="#FFA901"/>
<path d="M63.2001 52.0084C58.8432 52.0084 55.3 55.5515 55.3 59.9084C55.3 64.2652 58.8432 67.8084 63.2001 67.8084C67.5569 67.8084 71.1001 64.2652 71.1001 59.9084C71.1001 55.5515 67.5569 52.0084 63.2001 52.0084ZM63.2001 65.175C60.2954 65.175 57.9334 62.8128 57.9334 59.9084C57.9334 57.0037 60.2956 54.6417 63.2001 54.6417C66.1047 54.6417 68.4667 57.0039 68.4667 59.9084C68.4667 62.8128 66.1047 65.175 63.2001 65.175Z" fill="#FFA901"/>
<path d="M78.7907 44.7128L66.9407 26.2794C66.6984 25.9027 66.2811 25.675 65.8333 25.675H51.3501C50.6219 25.675 50.0334 26.2649 50.0334 26.9916V59.9082C50.0334 60.6363 50.6219 61.2248 51.3501 61.2248H56.6167V58.5914H52.6667V28.3084H65.1144L76.3667 45.8121V58.5918H69.7833V61.225H77.6833C78.4114 61.225 78.9999 60.6365 78.9999 59.9084V45.425C79.0001 45.1735 78.9277 44.9246 78.7907 44.7128Z" fill="#FFA901"/>
<path d="M57.9333 42.7917V33.575H68.4667V30.9417H56.6167C55.8885 30.9417 55.3 31.5315 55.3 32.2583V44.1083C55.3 44.8364 55.8885 45.4249 56.6167 45.4249H76.3667V42.7915H57.9333V42.7917Z" fill="#FFA901"/>
<path d="M51.35 16.4584H1.31662C0.589877 16.4584 0 17.0483 0 17.7751V59.9084C0 60.6366 0.589877 61.2251 1.31662 61.2251H11.85V58.5917H2.63338V19.0917H50.0334V58.5917H25.0166V61.2251H51.35C52.0781 61.2251 52.6666 60.6366 52.6666 59.9084V17.7751C52.6666 17.0483 52.0781 16.4584 51.35 16.4584Z" fill="#FFA901"/>
<path d="M9.21665 53.325H1.31665V55.9584H9.21665V53.325Z" fill="#426AF9"/>
<path d="M50.0333 53.325H27.6499V55.9584H50.0333V53.325Z" fill="#426AF9"/>
<path d="M77.6833 53.325H72.4167V55.9584H77.6833V53.325Z" fill="#FFA901"/>
<path d="M51.35 21.725H5.2666V24.3584H51.35V21.725Z" fill="#426AF9"/>
<path d="M19.7501 58.5916H17.1167V61.2249H19.7501V58.5916Z" fill="#426AF9"/>
<path d="M64.5167 58.5916H61.8833V61.2249H64.5167V58.5916Z" fill="#426AF9"/>
<path d="M23.7 11.1917H5.2666V13.825H23.7V11.1917Z" fill="#426AF9"/>
<path d="M2.63338 11.1917H0V13.825H2.63338V11.1917Z" fill="#426AF9"/>
</svg>
