<svg viewBox="0 0 78 78" fill="none" xmlns="http://www.w3.org/2000/svg">
<path d="M34.9531 22.2909L34.1986 13.2353C34.1492 12.6432 33.6542 12.1877 33.0599 12.1877H31.9175V11.0449C31.9175 9.15479 30.3799 7.61719 28.4898 7.61719C26.5997 7.61719 25.0621 9.15479 25.0621 11.0449V12.1877H23.9196C23.3327 12.1877 22.8412 12.6323 22.7827 13.2164L21.8685 22.3571C21.8363 22.6783 21.9416 22.9981 22.1582 23.2374C22.3749 23.4768 22.6826 23.6133 23.0054 23.6133H33.8215C33.8226 23.6133 33.8235 23.6133 33.8246 23.6133C34.4556 23.6133 34.9671 23.1017 34.9671 22.4707C34.9671 22.4096 34.9623 22.3494 34.9531 22.2909ZM27.3472 11.0449C27.3472 10.4148 27.8597 9.90234 28.4898 9.90234C29.1199 9.90234 29.6324 10.4148 29.6324 11.0449V12.1877H27.3472V11.0449ZM24.2679 21.3283L24.9536 14.4728H32.0086L32.5798 21.3283H24.2679Z" fill="#426AF9"/>
<path d="M65.2724 10.1689C65.2696 10.1411 65.2648 10.1139 65.26 10.0868C65.2584 10.0772 65.2575 10.0675 65.2556 10.058C65.2492 10.0257 65.2409 9.99405 65.2316 9.96267C65.2303 9.95856 65.2296 9.95414 65.2284 9.95003C65.2186 9.91804 65.207 9.8868 65.1947 9.85603C65.1933 9.85238 65.1921 9.84872 65.1907 9.84506C65.1785 9.81566 65.1647 9.78702 65.1501 9.75899C65.1475 9.75411 65.1455 9.74893 65.1429 9.74406C65.1289 9.71801 65.1133 9.69272 65.0973 9.66789C65.0931 9.66134 65.0896 9.65448 65.0852 9.64793C65.0692 9.62416 65.0518 9.60146 65.0341 9.57892C65.0288 9.57206 65.0241 9.56475 65.0186 9.55805C64.9948 9.52925 64.9698 9.50138 64.9433 9.47502L55.8036 0.334852C55.7773 0.308496 55.7495 0.283359 55.7206 0.259594C55.7131 0.2535 55.705 0.24832 55.6976 0.242379C55.6758 0.225316 55.6539 0.208406 55.6309 0.19302C55.6237 0.188145 55.6161 0.184184 55.6088 0.179613C55.5845 0.164227 55.5602 0.148992 55.5349 0.135434C55.5292 0.132387 55.5235 0.130102 55.5178 0.127207C55.4902 0.113039 55.4624 0.0993281 55.4337 0.0874453C55.4296 0.0857695 55.4253 0.0845508 55.4212 0.0830273C55.3909 0.0708398 55.3601 0.0594141 55.3286 0.0498164C55.324 0.0484453 55.3193 0.0475312 55.3147 0.0463125C55.2837 0.0373242 55.2524 0.0289453 55.2204 0.0225469C55.2108 0.0205664 55.2009 0.0198047 55.1913 0.0181289C55.1644 0.0134063 55.1373 0.00868359 55.1095 0.00594141C55.0718 0.00198047 55.0337 0 54.9954 0H13.8647C13.2337 0 12.7222 0.51157 12.7222 1.14258V70.2267C12.7222 70.8577 13.2337 71.3692 13.8647 71.3692H39.763C40.394 71.3692 40.9056 70.8577 40.9056 70.2267C40.9056 69.5956 40.394 69.0841 39.763 69.0841H15.0073V2.28516H53.8529V10.2829C53.8529 10.9139 54.3644 11.4255 54.9954 11.4255H62.9929V69.0841H56.5208C55.8898 69.0841 55.3783 69.5956 55.3783 70.2267C55.3783 70.8577 55.8898 71.3692 56.5208 71.3692H64.1354C64.7665 71.3692 65.278 70.8577 65.278 70.2267V10.2829C65.278 10.2447 65.2762 10.2066 65.2724 10.1689ZM56.138 9.14032V3.90107L61.3771 9.14032H56.138Z" fill="#FFA901"/>
<path d="M54.9952 32.5243H23.0049C22.3739 32.5243 21.8623 33.0358 21.8623 33.6668C21.8623 34.2978 22.3739 34.8094 23.0049 34.8094H54.9952C55.6263 34.8094 56.1378 34.2978 56.1378 33.6668C56.1378 33.0358 55.6263 32.5243 54.9952 32.5243Z" fill="#FFA901"/>
<path d="M54.9952 38.6195H23.0049C22.3739 38.6195 21.8623 39.1311 21.8623 39.7621C21.8623 40.3931 22.3739 40.9047 23.0049 40.9047H54.9952C55.6263 40.9047 56.1378 40.3931 56.1378 39.7621C56.1378 39.1311 55.6263 38.6195 54.9952 38.6195Z" fill="#FFA901"/>
<path d="M54.9952 44.7131H23.0049C22.3739 44.7131 21.8623 45.2246 21.8623 45.8557C21.8623 46.4867 22.3739 46.9982 23.0049 46.9982H54.9952C55.6263 46.9982 56.1378 46.4867 56.1378 45.8557C56.1378 45.2246 55.6263 44.7131 54.9952 44.7131Z" fill="#FFA901"/>
<path d="M36.7149 50.8068H23.0049C22.3739 50.8068 21.8623 51.3184 21.8623 51.9494C21.8623 52.5804 22.3739 53.092 23.0049 53.092H36.7149C37.3459 53.092 37.8575 52.5804 37.8575 51.9494C37.8575 51.3184 37.3459 50.8068 36.7149 50.8068Z" fill="#FFA901"/>
<path d="M56.1396 61.852C56.1396 57.4418 52.5518 53.8539 48.1416 53.8539C43.7314 53.8539 40.1436 57.4418 40.1436 61.852C40.1436 64.3935 41.3367 66.6604 43.1907 68.1264V76.8575C43.1907 76.8697 43.1921 76.8814 43.1926 76.8936C43.1933 76.9169 43.1939 76.9401 43.1961 76.9634C43.1976 76.9797 43.2002 76.9957 43.2023 77.0118C43.2052 77.0327 43.208 77.0536 43.2119 77.0743C43.2153 77.0917 43.2197 77.1087 43.2238 77.1258C43.2284 77.1448 43.2328 77.1639 43.2384 77.1826C43.2438 77.2006 43.25 77.218 43.2562 77.2356C43.2623 77.253 43.2683 77.2705 43.2753 77.2877C43.2828 77.306 43.2911 77.3235 43.2995 77.3414C43.307 77.3572 43.3141 77.3732 43.3224 77.3889C43.3323 77.4076 43.3431 77.4254 43.3539 77.4436C43.3623 77.4576 43.3704 77.4718 43.3793 77.4855C43.392 77.5047 43.4058 77.5229 43.4196 77.5414C43.427 77.5513 43.4334 77.5616 43.4412 77.5714C43.4427 77.5734 43.4445 77.5749 43.4461 77.5769C43.4717 77.6086 43.4988 77.6389 43.5276 77.6675C43.5356 77.6756 43.5445 77.6826 43.5529 77.6904C43.5737 77.71 43.5951 77.7292 43.6175 77.7474C43.6309 77.7582 43.6447 77.7679 43.6586 77.7781C43.6773 77.7918 43.6961 77.8052 43.7154 77.8177C43.73 77.8272 43.7448 77.836 43.7599 77.8447C43.7802 77.8566 43.8009 77.8675 43.8219 77.8782C43.8362 77.8854 43.8505 77.8925 43.8653 77.8991C43.8886 77.9096 43.9125 77.9189 43.9366 77.9279C43.9497 77.9328 43.9627 77.9379 43.9759 77.9422C44.0029 77.9512 44.0306 77.9585 44.0585 77.9654C44.0696 77.9681 44.0806 77.9714 44.0917 77.9739C44.1225 77.9806 44.1539 77.9853 44.1855 77.9894C44.1944 77.9905 44.2031 77.9925 44.2119 77.9934C44.2492 77.9973 44.2872 77.9993 44.3255 77.9996C44.3284 77.9996 44.3313 78.0001 44.3342 78.0001C44.3354 78.0001 44.3365 77.9998 44.3377 77.9998C44.3935 77.9996 44.4479 77.9941 44.5013 77.9864C44.5129 77.9847 44.5242 77.9832 44.5358 77.981C44.5902 77.9714 44.643 77.958 44.6944 77.941C44.7038 77.9378 44.713 77.9341 44.7222 77.9308C44.7769 77.911 44.8303 77.8881 44.8808 77.8605C44.8827 77.8596 44.8843 77.8583 44.8862 77.8573C44.9395 77.8279 44.9896 77.7938 45.0371 77.7565C45.0405 77.7539 45.0441 77.7522 45.0475 77.7496L48.1422 75.2739L51.2368 77.7496C51.24 77.7522 51.2435 77.7537 51.2467 77.7563C51.2945 77.7938 51.3449 77.8279 51.3983 77.8575C51.3999 77.8584 51.4015 77.8596 51.4031 77.8605C51.4537 77.8883 51.5072 77.9111 51.562 77.9309C51.5713 77.9343 51.5803 77.9379 51.5896 77.941C51.6409 77.958 51.694 77.9714 51.7483 77.9812C51.7598 77.9832 51.771 77.9847 51.7826 77.9864C51.8362 77.9943 51.8906 77.9996 51.9464 77.9998C51.9476 77.9998 51.9487 78.0001 51.9499 78.0001C51.9526 78.0001 51.9557 77.9996 51.9584 77.9996C51.9968 77.9993 52.0347 77.9973 52.0722 77.9934C52.0809 77.9925 52.0894 77.9905 52.098 77.9894C52.1298 77.9853 52.1615 77.9804 52.1923 77.9737C52.2032 77.9713 52.2141 77.9681 52.2249 77.9654C52.2531 77.9585 52.2809 77.951 52.3082 77.942C52.3212 77.9378 52.3338 77.9326 52.3467 77.928C52.3711 77.9189 52.3952 77.9094 52.4188 77.8989C52.4333 77.8925 52.4474 77.8854 52.4618 77.8782C52.4829 77.8675 52.5038 77.8564 52.5242 77.8445C52.5392 77.8359 52.5539 77.827 52.5686 77.8176C52.5879 77.8049 52.6068 77.7917 52.6254 77.778C52.6392 77.7678 52.6531 77.758 52.6667 77.7472C52.6891 77.7292 52.7102 77.7099 52.7311 77.6904C52.7395 77.6826 52.7483 77.6754 52.7564 77.6674C52.7853 77.6387 52.8123 77.6083 52.8381 77.5766C52.8396 77.5747 52.8414 77.5732 52.8429 77.5712C52.8507 77.5616 52.8569 77.5513 52.8644 77.5415C52.8783 77.5231 52.8921 77.5047 52.9049 77.4853C52.9139 77.4716 52.9218 77.4574 52.9304 77.4436C52.9412 77.4254 52.9522 77.4075 52.9621 77.3887C52.9703 77.3732 52.9775 77.3573 52.9848 77.3415C52.9931 77.3237 53.0015 77.306 53.009 77.2876C53.016 77.2704 53.0219 77.2528 53.028 77.2355C53.0343 77.218 53.0405 77.2004 53.0459 77.1825C53.0515 77.1636 53.0559 77.1445 53.0605 77.1255C53.0646 77.1084 53.069 77.0915 53.0724 77.0741C53.0763 77.0533 53.0791 77.0324 53.082 77.0115C53.0841 76.9955 53.0867 76.9795 53.0882 76.9632C53.0903 76.9399 53.0909 76.9166 53.0917 76.8933C53.0922 76.8813 53.0935 76.8695 53.0935 76.8574L53.0932 68.1264C54.9465 66.6604 56.1396 64.3935 56.1396 61.852ZM48.8721 72.9318C48.8721 72.9316 48.8719 72.9316 48.8719 72.9315L48.8558 72.9185C48.8474 72.912 48.8386 72.9065 48.8302 72.9001C48.8099 72.8847 48.7897 72.8696 48.7686 72.8557C48.7563 72.8477 48.7437 72.8405 48.731 72.8329C48.7117 72.8213 48.6925 72.8096 48.6725 72.7992C48.6568 72.791 48.6408 72.7837 48.6248 72.7764C48.6076 72.7683 48.5904 72.7601 48.5729 72.7531C48.5543 72.7454 48.5354 72.739 48.5167 72.7325C48.501 72.727 48.4853 72.7214 48.4694 72.7167C48.4495 72.7107 48.4294 72.7058 48.4091 72.701C48.3936 72.6973 48.3779 72.6933 48.3622 72.6901C48.3424 72.6863 48.3226 72.6834 48.3026 72.6807C48.2859 72.6783 48.269 72.6758 48.2521 72.6742C48.2338 72.6723 48.2156 72.6716 48.1974 72.6706C48.1783 72.6697 48.1594 72.6688 48.1404 72.6688C48.1242 72.6688 48.1082 72.6697 48.0921 72.6705C48.0711 72.6714 48.05 72.6723 48.029 72.6745C48.0147 72.6758 48.0005 72.678 47.9864 72.6799C47.964 72.683 47.9416 72.6863 47.9193 72.6906C47.9061 72.6933 47.8928 72.6965 47.8796 72.6997C47.8572 72.7051 47.8349 72.7104 47.8127 72.7171C47.7987 72.7214 47.785 72.7263 47.7711 72.7311C47.7505 72.7381 47.73 72.7453 47.7097 72.7535C47.6934 72.7601 47.6776 72.7678 47.6616 72.7752C47.6445 72.7831 47.6274 72.7908 47.6105 72.7997C47.5913 72.8097 47.5726 72.8212 47.5537 72.8324C47.5408 72.8404 47.5277 72.8477 47.5149 72.8561C47.4938 72.8699 47.4736 72.8851 47.4532 72.9005C47.4448 72.9069 47.4361 72.9123 47.4279 72.9188L47.412 72.9316C47.4119 72.9318 47.4116 72.9319 47.4113 72.9322L45.4759 74.4806V69.3921C46.3103 69.6879 47.2071 69.8506 48.1416 69.8506C49.0761 69.8506 49.9729 69.6881 50.8075 69.3921L50.8076 74.4802L48.8721 72.9318ZM48.1416 67.5648C44.9914 67.5648 42.4287 65.0021 42.4287 61.852C42.4287 58.7018 44.9914 56.1391 48.1416 56.1391C51.2918 56.1391 53.8545 58.7018 53.8545 61.852C53.8545 65.0021 51.2918 67.5648 48.1416 67.5648Z" fill="#FFA901"/>
<path d="M48.1418 58.424C46.2517 58.424 44.7141 59.9616 44.7141 61.8517C44.7141 63.7419 46.2517 65.2795 48.1418 65.2795C50.032 65.2795 51.5696 63.7419 51.5696 61.8517C51.5696 59.9616 50.032 58.424 48.1418 58.424ZM48.1418 62.9943C47.5118 62.9943 46.9993 62.4818 46.9993 61.8517C46.9993 61.2217 47.5118 60.7092 48.1418 60.7092C48.7719 60.7092 49.2844 61.2217 49.2844 61.8517C49.2844 62.4818 48.7719 62.9943 48.1418 62.9943Z" fill="#426AF9"/>
</svg>
