<svg width="61" height="61" viewBox="0 0 61 61" fill="none" xmlns="http://www.w3.org/2000/svg">
<g clip-path="url(#clip0)">
<path d="M60.8099 32.0901L57.7863 17.2752C56.5673 11.6596 51.6082 7.64635 45.8619 7.625H16.1549C10.4089 7.64596 5.4501 11.6589 4.23138 17.2742L0.305017 35.6453C0.303498 35.6697 0.303498 35.6942 0.305017 35.7185C-0.601402 40.1213 0.556539 44.6967 3.44816 48.1382C6.33977 51.5798 10.6472 53.509 15.1402 53.375H55.4084C56.9864 53.3751 58.491 52.7084 59.551 51.5394C60.611 50.3703 61.1277 48.8079 60.9736 47.2374C60.6996 44.8765 58.9838 42.9363 56.6741 42.3757C59.9632 40.0771 61.5848 36.0534 60.8089 32.1165C60.8079 32.1073 60.8109 32.0992 60.8099 32.0901ZM6.21998 17.6981C7.23549 13.0194 11.3672 9.6758 16.1549 9.65833H45.8619C50.6468 9.67506 54.7773 13.0147 55.7957 17.69L57.5922 26.4852C55.7365 24.8162 53.3292 23.8924 50.8334 23.8917H14.7417C10.7026 23.879 6.83838 25.5388 4.06668 28.4768C3.99552 28.5511 3.93655 28.6324 3.86335 28.7076L6.21998 17.6981ZM50.8334 42.1917H14.7417C13.7361 42.1903 12.7779 41.7641 12.1034 41.0182C11.429 40.2723 11.1011 39.2761 11.2006 38.2755C11.4548 36.4125 13.0652 35.0361 14.945 35.075H50.8334C51.3948 35.075 51.85 34.6198 51.85 34.0583C51.85 33.4968 51.3948 33.0417 50.8334 33.0417H14.945C12.0217 33.0107 9.54005 35.1774 9.17645 38.0782C9.02157 39.6498 9.5377 41.2136 10.5976 42.3843C11.6575 43.5549 13.1625 44.2234 14.7417 44.225H55.2121C57.0923 44.1863 58.7013 45.5664 58.9494 47.4305C59.0523 48.4332 58.722 49.432 58.0415 50.1755C57.3666 50.9169 56.4109 51.3401 55.4084 51.3417H15.1402C8.25622 51.4559 2.49512 46.1454 2.04962 39.2749C1.87771 35.7985 3.13766 32.4036 5.53587 29.8811C7.93409 27.3586 11.2611 25.9288 14.7417 25.925H50.8334C55.3253 25.925 58.9667 29.5664 58.9667 34.0583C58.9667 38.5502 55.3253 42.1917 50.8334 42.1917Z" fill="#FFA901"/>
<path d="M8.99157 19.3268C9.06141 19.3418 9.13263 19.3493 9.20406 19.3492C9.68362 19.3486 10.0976 19.0131 10.1973 18.544C10.8069 15.739 13.2846 13.7349 16.155 13.725H24.4002C24.9617 13.725 25.4168 13.2698 25.4168 12.7083C25.4168 12.1468 24.9617 11.6917 24.4002 11.6917H16.155C12.3258 11.7054 9.02086 14.3791 8.20772 18.121C8.1517 18.3849 8.20282 18.6602 8.34983 18.8863C8.49684 19.1125 8.7277 19.2709 8.99157 19.3268Z" fill="#426AF9"/>
<path d="M28.4666 13.725C29.0281 13.725 29.4833 13.2698 29.4833 12.7083C29.4833 12.1468 29.0281 11.6917 28.4666 11.6917C27.9051 11.6917 27.45 12.1468 27.45 12.7083C27.45 13.2698 27.9051 13.725 28.4666 13.725Z" fill="#426AF9"/>
</g>
<defs>
<clipPath id="clip0">
<rect width="61" height="61" fill="white"/>
</clipPath>
</defs>
</svg>
